name analog
datacolumns 19
datarows 63
range 0.322 0.353
endheader
time	ground_force_vx	ground_force_vy	ground_force_vz	ground_force_px	ground_force_py	ground_force_pz	l_ground_force_vx	l_ground_force_vy	l_ground_force_vz	l_ground_force_px	l_ground_force_py	l_ground_force_pz	ground_torque_x	ground_torque_y	ground_torque_z	l_ground_torque_x	l_ground_torque_y	l_ground_torque_z
0.322	-0.0	-0.0	-0.0	3.56842041015625	-2.48562240600586	-828.2841796875	-0.0	-0.0	-0.0	-0.0	-0.0	-0.0	-0.0	-0.0	-0.0	-0.0	-0.0	-0.0
0.3225	-0.0	-0.0	-0.0	3.0431225299835205	-2.3370652198791504	-829.737060546875	-0.0	-0.0	-0.0	-0.0	-0.0	-0.0	-0.0	-0.0	-0.0	-0.0	-0.0	-0.0
0.323	-0.0	-0.0	-0.0	2.29964542388916	-2.584789037704468	-829.1094970703125	-0.0	-0.0	-0.0	-0.0	-0.0	-0.0	-0.0	-0.0	-0.0	-0.0	-0.0	-0.0
0.3235	-0.0	-0.0	-0.0	1.348319172859192	-2.693896770477295	-826.9916381835938	-0.0	-0.0	-0.0	-0.0	-0.0	-0.0	-0.0	-0.0	-0.0	-0.0	-0.0	-0.0
0.324	-0.0	-0.0	-0.0	0.4069797396659851	-2.584781646728516	-826.636962890625	-0.0	-0.0	-0.0	-0.0	-0.0	-0.0	-0.0	-0.0	-0.0	-0.0	-0.0	-0.0
0.3245	-0.0	-0.0	-0.0	0.0688975155353546	-2.0800020694732666	-823.77294921875	-0.0	-0.0	-0.0	-0.0	-0.0	-0.0	-0.0	-0.0	-0.0	-0.0	-0.0	-0.0
0.325	-0.0	-0.0	-0.0	-0.0301392078399658	-1.416451096534729	-818.8668212890625	-0.0	-0.0	-0.0	-0.0	-0.0	-0.0	-0.0	-0.0	-0.0	-0.0	-0.0	-0.0
0.3255	-0.0	-0.0	-0.0	0.0398196727037429	-0.8721789121627808	-814.39501953125	-0.0	-0.0	-0.0	-0.0	-0.0	-0.0	-0.0	-0.0	-0.0	-0.0	-0.0	-0.0
0.326	-0.0	-0.0	-0.0	0.0493686273694038	-0.4646883904933929	-808.9775390625	-0.0	-0.0	-0.0	-0.0	-0.0	-0.0	-0.0	-0.0	-0.0	-0.0	-0.0	-0.0
0.3265	-0.0	-0.0	-0.0	0.3778126239776611	0.3355698585510254	-807.4523315429688	-0.0	-0.0	-0.0	-0.0	-0.0	-0.0	-0.0	-0.0	-0.0	-0.0	-0.0	-0.0
0.327	-0.0	-0.0	-0.0	0.4342808127403259	1.365073800086975	-800.5751342773438	-0.0	-0.0	-0.0	-0.0	-0.0	-0.0	-0.0	-0.0	-0.0	-0.0	-0.0	-0.0
0.3275	-0.0	-0.0	-0.0	0.6737388968467712	2.228260040283203	-798.6610717773438	-0.0	-0.0	-0.0	-0.0	-0.0	-0.0	-0.0	-0.0	-0.0	-0.0	-0.0	-0.0
0.328	-0.0	-0.0	-0.0	1.156788349151611	2.7352962493896484	-797.0172119140625	-0.0	-0.0	-0.0	-0.0	-0.0	-0.0	-0.0	-0.0	-0.0	-0.0	-0.0	-0.0
0.3285	-0.0	-0.0	-0.0	2.181065320968628	2.6955373287200928	-795.28857421875	-0.0	-0.0	-0.0	-0.0	-0.0	-0.0	-0.0	-0.0	-0.0	-0.0	-0.0	-0.0
0.329	-0.0	-0.0	-0.0	2.577993392944336	3.128667116165161	-792.6943359375	-0.0	-0.0	-0.0	-0.0	-0.0	-0.0	-0.0	-0.0	-0.0	-0.0	-0.0	-0.0
0.3295	-0.0	-0.0	-0.0	3.095186233520508	3.939842462539673	-793.5594482421875	-0.0	-0.0	-0.0	-0.0	-0.0	-0.0	-0.0	-0.0	-0.0	-0.0	-0.0	-0.0
0.33	-0.0	-0.0	-0.0	3.2516896724700928	4.643760681152344	-797.110595703125	-0.0	-0.0	-0.0	-0.0	-0.0	-0.0	-0.0	-0.0	-0.0	-0.0	-0.0	-0.0
0.3305	-0.0	-0.0	-0.0	2.796758890151977	4.478818416595459	-802.4248046875	-0.0	-0.0	-0.0	-0.0	-0.0	-0.0	-0.0	-0.0	-0.0	-0.0	-0.0	-0.0
0.331	-0.0	-0.0	-0.0	2.4264109134674072	4.438808917999268	-807.7225341796875	-0.0	-0.0	-0.0	-0.0	-0.0	-0.0	-0.0	-0.0	-0.0	-0.0	-0.0	-0.0
0.3315	-0.0	-0.0	-0.0	1.904839873313904	3.565216064453125	-813.2489624023438	-0.0	-0.0	-0.0	-0.0	-0.0	-0.0	-0.0	-0.0	-0.0	-0.0	-0.0	-0.0
0.332	-0.0	-0.0	-0.0	0.7626482844352722	2.7543325424194336	-818.7745971679688	-0.0	-0.0	-0.0	-0.0	-0.0	-0.0	-0.0	-0.0	-0.0	-0.0	-0.0	-0.0
0.3325	-0.0	-0.0	-0.0	0.0576055794954299	2.179365396499634	-822.1343383789062	-0.0	-0.0	-0.0	-0.0	-0.0	-0.0	-0.0	-0.0	-0.0	-0.0	-0.0	-0.0
0.333	-0.0	-0.0	-0.0	-0.6099473237991333	2.251359462738037	-827.8877563476562	-0.0	-0.0	-0.0	-0.0	-0.0	-0.0	-0.0	-0.0	-0.0	-0.0	-0.0	-0.0
0.3335	-0.0	-0.0	-0.0	-1.3637211322784424	1.8887654542922971	-830.5869750976562	-0.0	-0.0	-0.0	-0.0	-0.0	-0.0	-0.0	-0.0	-0.0	-0.0	-0.0	-0.0
0.334	-0.0	-0.0	-0.0	-2.051841735839844	2.3980507850646973	-833.9505004882812	-0.0	-0.0	-0.0	-0.0	-0.0	-0.0	-0.0	-0.0	-0.0	-0.0	-0.0	-0.0
0.3345	-0.0	-0.0	-0.0	-2.644317150115967	2.68230938911438	-837.1964111328125	-0.0	-0.0	-0.0	-0.0	-0.0	-0.0	-0.0	-0.0	-0.0	-0.0	-0.0	-0.0
0.335	-0.0	-0.0	-0.0	-3.349560022354126	3.703073978424072	-838.3502197265625	-0.0	-0.0	-0.0	-0.0	-0.0	-0.0	-0.0	-0.0	-0.0	-0.0	-0.0	-0.0
0.3355	-0.0	-0.0	-0.0	-3.876521825790405	3.7839102745056152	-838.063232421875	-0.0	-0.0	-0.0	-0.0	-0.0	-0.0	-0.0	-0.0	-0.0	-0.0	-0.0	-0.0
0.336	-0.0	-0.0	-0.0	-4.719949245452881	4.464720726013184	-836.3951416015625	-0.0	-0.0	-0.0	-0.0	-0.0	-0.0	-0.0	-0.0	-0.0	-0.0	-0.0	-0.0
0.3365	-0.0	-0.0	-0.0	-5.644530296325684	4.51327657699585	-832.9588012695312	-0.0	-0.0	-0.0	-0.0	-0.0	-0.0	-0.0	-0.0	-0.0	-0.0	-0.0	-0.0
0.337	-0.0	-0.0	-0.0	-6.066314697265625	5.396416664123535	-830.83984375	-0.0	-0.0	-0.0	-0.0	-0.0	-0.0	-0.0	-0.0	-0.0	-0.0	-0.0	-0.0
0.3375	-0.0	-0.0	-0.0	-6.05029296875	5.647775173187256	-826.506591796875	-0.0	-0.0	-0.0	-0.0	-0.0	-0.0	-0.0	-0.0	-0.0	-0.0	-0.0	-0.0
0.338	-0.0	-0.0	-0.0	-5.903769493103027	5.939067840576172	-822.9093017578125	-0.0	-0.0	-0.0	-0.0	-0.0	-0.0	-0.0	-0.0	-0.0	-0.0	-0.0	-0.0
0.3385	-0.0	-0.0	-0.0	-5.255555152893066	6.539297580718994	-820.629150390625	-0.0	-0.0	-0.0	-0.0	-0.0	-0.0	-0.0	-0.0	-0.0	-0.0	-0.0	-0.0
0.339	-0.0	-0.0	-0.0	-4.970718860626221	7.3008856773376465	-817.8345336914062	-0.0	-0.0	-0.0	-0.0	-0.0	-0.0	-0.0	-0.0	-0.0	-0.0	-0.0	-0.0
0.3395	-0.0	-0.0	-0.0	-4.266622066497803	7.357125282287598	-816.0988159179688	-0.0	-0.0	-0.0	-0.0	-0.0	-0.0	-0.0	-0.0	-0.0	-0.0	-0.0	-0.0
0.34	-0.0	-0.0	-0.0	-3.7799441814422607	7.372411727905273	-817.5205078125	-0.0	-0.0	-0.0	-0.0	-0.0	-0.0	-0.0	-0.0	-0.0	-0.0	-0.0	-0.0
0.3405	-0.0	-0.0	-0.0	-3.389999389648437	7.026066780090332	-816.7135009765625	-0.0	-0.0	-0.0	-0.0	-0.0	-0.0	-0.0	-0.0	-0.0	-0.0	-0.0	-0.0
0.341	-0.0	-0.0	-0.0	-2.42685866355896	6.903833866119385	-818.5094604492188	-0.0	-0.0	-0.0	-0.0	-0.0	-0.0	-0.0	-0.0	-0.0	-0.0	-0.0	-0.0
0.3415	-0.0	-0.0	-0.0	-1.5649232864379885	5.002243995666504	-822.1437377929688	-0.0	-0.0	-0.0	-0.0	-0.0	-0.0	-0.0	-0.0	-0.0	-0.0	-0.0	-0.0
0.342	-0.0	-0.0	-0.0	-1.323302984237671	1.671215534210205	-829.0457763671875	-0.0	-0.0	-0.0	-0.0	-0.0	-0.0	-0.0	-0.0	-0.0	-0.0	-0.0	-0.0
0.3425	-0.0	-0.0	-0.0	-1.5501521825790403	0.3827170729637146	-832.79833984375	-0.0	-0.0	-0.0	-0.0	-0.0	-0.0	-0.0	-0.0	-0.0	-0.0	-0.0	-0.0
0.343	-0.0	-0.0	-0.0	-1.7769285440444946	0.315593957901001	-836.1390991210938	-0.0	-0.0	-0.0	-0.0	-0.0	-0.0	-0.0	-0.0	-0.0	-0.0	-0.0	-0.0
0.3435	-0.0	-0.0	-0.0	-2.8016273975372314	0.8503457307815552	-836.9313354492188	-0.0	-0.0	-0.0	-0.0	-0.0	-0.0	-0.0	-0.0	-0.0	-0.0	-0.0	-0.0
0.34400000000000003	-0.0	-0.0	-0.0	-4.241077899932861	1.4742270708084106	-837.9052124023438	-0.0	-0.0	-0.0	-0.0	-0.0	-0.0	-0.0	-0.0	-0.0	-0.0	-0.0	-0.0
0.34450000000000003	-0.0	-0.0	-0.0	-5.675494194030762	1.4600346088409424	-840.7588500976562	-0.0	-0.0	-0.0	-0.0	-0.0	-0.0	-0.0	-0.0	-0.0	-0.0	-0.0	-0.0
0.34500000000000003	-0.0	-0.0	-0.0	-6.779998779296875	1.0695648193359375	-843.3659057617188	-0.0	-0.0	-0.0	-0.0	-0.0	-0.0	-0.0	-0.0	-0.0	-0.0	-0.0	-0.0
0.34550000000000003	-0.0	-0.0	-0.0	-8.324419975280762	0.3084792494773865	-844.1526489257812	-0.0	-0.0	-0.0	-0.0	-0.0	-0.0	-0.0	-0.0	-0.0	-0.0	-0.0	-0.0
0.34600000000000003	-0.0	-0.0	-0.0	-9.744443893432615	-0.0273613482713699	-841.7362060546875	-0.0	-0.0	-0.0	-0.0	-0.0	-0.0	-0.0	-0.0	-0.0	-0.0	-0.0	-0.0
0.34650000000000003	-0.0	-0.0	-0.0	-10.073972702026367	0.6443390250205994	-841.0575561523438	-0.0	-0.0	-0.0	-0.0	-0.0	-0.0	-0.0	-0.0	-0.0	-0.0	-0.0	-0.0
0.34700000000000003	-0.0	-0.0	-0.0	-10.60928726196289	0.9527626633644104	-837.1167602539062	-0.0	-0.0	-0.0	-0.0	-0.0	-0.0	-0.0	-0.0	-0.0	-0.0	-0.0	-0.0
0.34750000000000003	-0.0	-0.0	-0.0	-10.609359741210938	1.014972686767578	-834.7275390625	-0.0	-0.0	-0.0	-0.0	-0.0	-0.0	-0.0	-0.0	-0.0	-0.0	-0.0	-0.0
0.34800000000000003	-0.0	-0.0	-0.0	-10.622668266296388	0.6040774583816528	-831.3331909179688	-0.0	-0.0	-0.0	-0.0	-0.0	-0.0	-0.0	-0.0	-0.0	-0.0	-0.0	-0.0
0.34850000000000003	-0.0	-0.0	-0.0	-10.683663368225098	0.7543246150016785	-827.5861206054688	-0.0	-0.0	-0.0	-0.0	-0.0	-0.0	-0.0	-0.0	-0.0	-0.0	-0.0	-0.0
0.34900000000000003	-0.0	-0.0	-0.0	-10.122142791748049	0.4261674880981445	-823.0471801757812	-0.0	-0.0	-0.0	-0.0	-0.0	-0.0	-0.0	-0.0	-0.0	-0.0	-0.0	-0.0
0.34950000000000003	-0.0	-0.0	-0.0	-9.62187957763672	0.2067709118127823	-818.31787109375	-0.0	-0.0	-0.0	-0.0	-0.0	-0.0	-0.0	-0.0	-0.0	-0.0	-0.0	-0.0
0.35000000000000003	-0.0	-0.0	-0.0	-9.195059776306152	0.1018729358911514	-813.840087890625	-0.0	-0.0	-0.0	-0.0	-0.0	-0.0	-0.0	-0.0	-0.0	-0.0	-0.0	-0.0
0.35050000000000003	-0.0	-0.0	-0.0	-8.338030815124512	-0.1017273217439651	-811.379150390625	-0.0	-0.0	-0.0	-0.0	-0.0	-0.0	-0.0	-0.0	-0.0	-0.0	-0.0	-0.0
0.35100000000000003	-0.0	-0.0	-0.0	-7.319364070892334	0.4041996300220489	-810.901123046875	-0.0	-0.0	-0.0	-0.0	-0.0	-0.0	-0.0	-0.0	-0.0	-0.0	-0.0	-0.0
0.35150000000000003	-0.0	-0.0	-0.0	-6.595407962799072	0.2444015443325042	-808.59326171875	-0.0	-0.0	-0.0	-0.0	-0.0	-0.0	-0.0	-0.0	-0.0	-0.0	-0.0	-0.0
0.352	-0.0	-0.0	-0.0	-4.691514015197754	1.170898675918579	-811.6316528320312	-0.0	-0.0	-0.0	-0.0	-0.0	-0.0	-0.0	-0.0	-0.0	-0.0	-0.0	-0.0
0.3525	-0.0	-0.0	-0.0	-3.1518871784210205	1.1231733560562134	-814.8817138671875	-0.0	-0.0	-0.0	-0.0	-0.0	-0.0	-0.0	-0.0	-0.0	-0.0	-0.0	-0.0
0.353	-0.0	-0.0	-0.0	-2.1707539558410645	1.0576525926589966	-822.8860473632812	-0.0	-0.0	-0.0	-0.0	-0.0	-0.0	-0.0	-0.0	-0.0	-0.0	-0.0	-0.0
